# xmcd
#
# Track frame offsets:
#	150
#	14607
#	29897
#	44158
#	58400
#	69025
#	84181
#	98941
#	109084
#	130199
#	151783
#	175930
#	195290
#	207537
#	220251
#	231491
#	244314
#	252477
#	268079
#	285619
#	297014
#	307017
#	320562
#
# Disc length: 4439 seconds
#
# Revision: 1
# Processed by: cddbd v1.4PL0 Copyright (c) Steve Scherf et al.
# Submitted via: audiograbber 1.81.03
#
DISCID=64115517
DTITLE=Louis Arstrong - Essential Louis Armstrong
DYEAR=1900
DGENRE=Blues
TTITLE0=When the saints go marching in
TTITLE1=Mack the knife
TTITLE2=That rhythm man
TTITLE3=Just a gigalo
TTITLE4=Mame
TTITLE5=Bye and bye
TTITLE6=Blueberry hill
TTITLE7=Way down yonder in New Orleans
TTITLE8=Jeepers Creepers
TTITLE9=Tea for two
TTITLE10=On the sunny side of the street
TTITLE11=The hucklebuck
TTITLE12=Basin street blues
TTITLE13=I can't give you anything but love
TTITLE14=Hello dolly
TTITLE15=St Louis blues
TTITLE16=Stompin' at the Savoy
TTITLE17=The peanut vendor
TTITLE18=Cabaret
TTITLE19=Tiger rag
TTITLE20=I got rhythm
TTITLE21=Ain't misbehavin'
TTITLE22=C'est si bon
EXTD=Part of Diamond Collection
EXTT0=
EXTT1=
EXTT2=
EXTT3=
EXTT4=
EXTT5=
EXTT6=
EXTT7=
EXTT8=
EXTT9=
EXTT10=
EXTT11=
EXTT12=
EXTT13=
EXTT14=
EXTT15=
EXTT16=
EXTT17=
EXTT18=
EXTT19=
EXTT20=
EXTT21=
EXTT22=
PLAYORDER=
